<svg xmlns="http://www.w3.org/2000/svg" viewBox="0 0 64 64">
  <!-- Head -->
  <ellipse cx="32" cy="12" rx="10" ry="12" fill="#FFC4A3" />

  <!-- Hair -->
  <path d="
    M22 6 
    Q28 0, 32 0 
    Q36 0, 42 6 
    Q41 10, 38 11 
    Q32 8, 26 11 
    Q23 10, 22 6 
    Z
  " fill="#2B1B0B" />

  <!-- Eyes -->
  <ellipse cx="28" cy="14" rx="1.2" ry="1.6" fill="#333" />
  <ellipse cx="36" cy="14" rx="1.2" ry="1.6" fill="#333" />

  <!-- Mouth -->
  <path d="M28 20 Q32 23, 36 20" stroke="#333" stroke-width="0.5" fill="none" />

  <!-- Body -->
  <rect x="22" y="24" width="20" height="30" rx="4" ry="4" fill="#FFD700" />

  <!-- Arms -->
  <!-- Left arm -->
  <rect x="12" y="24" width="8" height="20" transform="rotate(15, 16, 34)" fill="#FFC4A3" rx="2.5" />
  <!-- Right arm -->
  <rect x="44" y="24" width="8" height="20" transform="rotate(-15, 48, 34)" fill="#FFC4A3" rx="2.5" />

  <!-- Legs -->
  <rect x="24" y="54" width="6" height="10" rx="2.5" fill="#333" />
  <rect x="34" y="54" width="6" height="10" rx="2.5" fill="#333" />
</svg>
