<svg xmlns="http://www.w3.org/2000/svg" viewBox="0 0 64 64">
  <!-- Head -->
  <ellipse cx="32" cy="12" rx="7" ry="9" fill="#FFC4A3" />

  <!-- Hair -->
  <path d="
    M24 6 
    Q28 0, 32 0 
    Q36 0, 40 6 
    Q39 10, 36 11 
    Q32 8, 28 11 
    Q25 10, 24 6 
    Z
  " fill="#2B1B0B" />

  <!-- Eyes -->
  <ellipse cx="29" cy="13" rx="0.8" ry="1.2" fill="#333" />
  <ellipse cx="35" cy="13" rx="0.8" ry="1.2" fill="#333" />

  <!-- Mouth -->
  <path d="M29 17 Q32 19, 35 17" stroke="#333" stroke-width="0.5" fill="none" />

  <!-- Arms with Sleeves -->
  <!-- Left arm -->
  <rect x="22" y="23" width="4" height="28" transform="rotate(15, 20, 25)" fill="#FFC4A3" rx="2.5" />
  <rect x="22" y="23" width="4" height="14" transform="rotate(15, 20, 25)" fill="#3B4CCA" rx="2.5" />

  <!-- Right arm -->
  <rect x="38" y="23" width="4" height="28" transform="rotate(-15, 44, 25)" fill="#FFC4A3" rx="2.5" />
  <rect x="38" y="23" width="4" height="14" transform="rotate(-15, 44, 25)" fill="#3B4CCA" rx="2.5" />

  <!-- Legs -->
  <rect x="26" y="48" width="5" height="16" rx="2.5" fill="#333" />
  <rect x="33" y="48" width="5" height="16" rx="2.5" fill="#333" />

  <!-- Body -->
  <rect x="24" y="21" width="16" height="28" rx="4" ry="4" fill="#3B4CCA" />
</svg>
